<svg id="Layer_1" data-name="Layer 1" xmlns="http://www.w3.org/2000/svg" fill="#FFF" viewBox="0 0 299.02 275.39"><path d="M0,266.21a1.38,1.38,0,0,1,1.56-1.56,72.58,72.58,0,0,0,8.69-1.07,33.24,33.24,0,0,0,10.16-3.71,37.72,37.72,0,0,0,10.06-8.4q4.88-5.57,8.2-15.33L117.19,8.4c0,.13,0,.07.1-.2a3.22,3.22,0,0,0,.1-.78A7.83,7.83,0,0,0,116.31,4a7.61,7.61,0,0,1-1.07-3c0-.65.26-1,.78-1h56.64a6.06,6.06,0,0,0,1.07.39,1.78,1.78,0,0,1,1.07,1.17L257.42,233.4q1.95,5.47,3.71,9.38a31.54,31.54,0,0,0,4.2,6.93,26.48,26.48,0,0,0,6.15,5.47,63.35,63.35,0,0,0,9.57,5,58.45,58.45,0,0,0,7.42,2.93,28.32,28.32,0,0,0,9,1.56,1.28,1.28,0,0,1,1.27.59,2.6,2.6,0,0,1,.29,1.17v7.42a2.29,2.29,0,0,1-.29,1,1.28,1.28,0,0,1-1.27.59H160.35a1.28,1.28,0,0,1-1.27-.59,2.29,2.29,0,0,1-.29-1v-7.62a2.31,2.31,0,0,1,.29-1,1.28,1.28,0,0,1,1.27-.59,12.19,12.19,0,0,0,1.56-.1,10.44,10.44,0,0,1,1.17-.1q2.15-.19,6.15-.39t8.69-.68a81.49,81.49,0,0,0,9.47-1.56,35.14,35.14,0,0,0,8.69-3.12,19.23,19.23,0,0,0,6.45-5.37,13.12,13.12,0,0,0,2.54-8.2,11.53,11.53,0,0,0-.39-2.73L179.1,171.88c-.13-.26-.36-.85-.68-1.76a11.38,11.38,0,0,0-1.56-2.83,11.81,11.81,0,0,0-2.73-2.64,6.77,6.77,0,0,0-4-1.17H99.61a7.57,7.57,0,0,0-4.3,1.17,14.25,14.25,0,0,0-2.93,2.54,13.6,13.6,0,0,0-1.86,2.73,7.79,7.79,0,0,0-.68,1.56l-10.55,31Q75,215,72.17,223.24t-4.39,12.7q-1.57,4.5-2.25,6.54a27.33,27.33,0,0,0-.88,3,4.61,4.61,0,0,0,.2,1.27c.13.46.26.88.39,1.27A16.26,16.26,0,0,0,71,256.15a33.29,33.29,0,0,0,9.67,5.08,59.53,59.53,0,0,0,11.23,2.64,77.07,77.07,0,0,0,10.25.78h5.08a1.28,1.28,0,0,1,1.27.59,2.31,2.31,0,0,1,.29,1v7.62a2.29,2.29,0,0,1-.29,1,1.28,1.28,0,0,1-1.27.59H1.56A1.38,1.38,0,0,1,0,273.83ZM102.34,135.35a10.84,10.84,0,0,0-.59,2,9.91,9.91,0,0,0-.2,2,2.75,2.75,0,0,0,.59,1.86,3,3,0,0,0,2.34.68h58.59q2.15,0,2.83-.88a3.25,3.25,0,0,0,.68-2.05,7.39,7.39,0,0,0-.2-1.76,14.31,14.31,0,0,0-.59-1.76l-26-71.29a7.66,7.66,0,0,0-2.93-4,6.66,6.66,0,0,0-3.52-1.27,6.09,6.09,0,0,0-3.52,1.46,8.83,8.83,0,0,0-2.93,4Z"/></svg>
